#!OML:ASF H:\Terrain\Patient Classification 1\Walking\steve\steve.ASF
:FULLY-SPECIFIED
:DEGREES
95
root 7.58496 15.7787 -20.9578 5.29478 -0.547811 -4.70623
lowerback 3.08497 2.61315 5.71481
upperback -2.49572 3.8694 2.377
thorax -4.10669 1.7921 -0.981873
lowerneck -11.2221 -1.87107 -2.75488
upperneck 15.2969 -2.45266 2.3913
head 6.56825 -1.14201 1.00002
rclavicle 5.39825e-014 1.07344e-014
rhumerus -34.3078 -9.57317 -83.4106
rradius 36.1646
rwrist 1.13069
rhand -24.272 -40.225
rfingers 7.12502
rthumb 2.21469 -70.1933
lclavicle 5.39825e-014 1.07344e-014
lhumerus -37.0484 3.16712 88.3312
lradius 17.972
lwrist 0.819081
lhand -24.5416 -17.1771
lfingers 7.12502
lthumb 1.95432 12.7937
rfemur -15.0571 0.522268 31.0478
rtibia 32.7937
rfoot -18.1903 17.0259
rtoes 11.5689
lfemur -36.8491 6.20901 -16.8801
ltibia 69.3619
lfoot -6.78867 3.9606
ltoes -12.9759
96
root 7.59997 15.7557 -20.7042 5.43849 -0.840321 -4.89912
lowerback 3.04767 2.69955 5.99121
upperback -2.58576 3.99806 2.32274
thorax -4.15143 1.84415 -1.19762
lowerneck -11.2806 -1.85894 -2.7737
upperneck 15.4769 -2.43562 2.39824
head 6.63587 -1.13355 1.00642
rclavicle 1.58779e-014 -3.97569e-016
rhumerus -33.5838 -7.6677 -84.3304
rradius 38.5261
rwrist -0.798573
rhand -24.105 -40.2279
rfingers 7.12502
rthumb 2.37592 -70.1944
lclavicle 1.58779e-014 -3.97569e-016
lhumerus -38.034 7.10193 85.4339
lradius 15.6583
lwrist -5.11398
lhand -24.048 -16.0967
lfingers 7.12502
lthumb 2.43099 13.8692
rfemur -14.0813 -0.214382 31.1576
rtibia 32.5788
rfoot -18.4631 17.3686
rtoes 11.5672
lfemur -37.7302 6.13206 -16.7817
ltibia 66.9371
lfoot -8.44661 3.68125
ltoes -11.7643
97
root 7.61255 15.7504 -20.4484 5.45838 -1.12056 -4.55933
lowerback 3.08242 2.7149 5.71146
upperback -2.47881 3.99059 2.05126
thorax -4.05706 1.8488 -1.32169
lowerneck -11.861 -1.77846 -2.48034
upperneck 15.7087 -2.36749 2.37495
head 6.80558 -1.08075 0.952724
rclavicle -1.10947e-014 -3.97569e-016
rhumerus -32.3087 -6.38319 -85.2903
rradius 40.5325
rwrist -1.96616
rhand -23.381 -39.5106
rfingers 7.12502
rthumb 3.0752 -69.4681
lclavicle -1.10947e-014 -3.97569e-016
lhumerus -38.9252 10.7387 82.1708
lradius 13.5443
lwrist -10.9272
lhand -23.9638 -16.5262
lfingers 7.12502
lthumb 2.51229 13.4388
rfemur -12.9122 -0.899894 30.6593
rtibia 32.2141
rfoot -18.3356 18.009
rtoes 12.3593
lfemur -38.3736 5.86919 -17.1611
ltibia 64.175
lfoot -9.77454 3.5352
ltoes -9.26004
98
root 7.62498 15.7498 -20.1955 5.55693 -1.4672 -4.36307
lowerback 3.02199 2.7761 5.56386
upperback -2.45776 4.05279 1.88889
thorax -3.99419 1.88364 -1.40688
lowerneck -11.8822 -1.72131 -2.38608
upperneck 15.6501 -2.29369 2.30523
head 6.78653 -1.04571 0.921553
rclavicle -1.64867e-014 3.97569e-015
rhumerus -31.0859 -5.16428 -85.9667
rradius 42.5274
rwrist -3.17412
rhand -22.9706 -38.6679
rfingers 7.12502
rthumb 3.47151 -68.6194
lclavicle -1.64867e-014 3.97569e-015
lhumerus -40.3831 15.2114 78.1894
lradius 11.627
lwrist -17.9805
lhand -23.9695 -16.1017
lfingers 7.12502
lthumb 2.50686 13.8633
rfemur -11.798 -1.55084 30.2934
rtibia 31.6835
rfoot -18.3416 19.183
rtoes 12.3894
lfemur -39.0646 5.68669 -17.3947
ltibia 61.1931
lfoot -10.4303 4.31621
ltoes -9.74578
99
root 7.63874 15.742 -19.9401 5.7844 -1.87548 -4.6247
lowerback 2.88915 2.94824 5.87469
upperback -2.56963 4.29451 1.9363
thorax -4.00364 1.99337 -1.53758
lowerneck -11.217 -1.81723 -2.71486
upperneck 15.0476 -2.36855 2.3093
head 6.48399 -1.10659 0.974861
rclavicle -3.60918e-014 -2.18663e-014
rhumerus -30.5211 -3.52471 -86.2985
rradius 45.1628
rwrist -4.95511
rhand -24.0195 -35.6724
rfingers 7.12502
rthumb 2.45852 -65.638
lclavicle -3.60918e-014 -2.18663e-014
lhumerus -42.88 20.3445 73.1586
lradius 10.2059
lwrist -26.3341
lhand -23.7191 -15.725
lfingers 7.12502
lthumb 2.74867 14.237
rfemur -10.7188 -2.39387 30.3817
rtibia 30.9972
rfoot -18.3302 20.4498
rtoes 12.701
lfemur -39.6879 5.5415 -17.111
ltibia 58.0238
lfoot -11.0795 5.01008
ltoes -12.5451
100
root 7.65276 15.7247 -19.6848 5.92287 -2.2577 -4.95777
lowerback 2.96201 3.08789 6.23272
upperback -2.59253 4.50636 1.97464
thorax -4.03288 2.08705 -1.71082
lowerneck -11.1414 -1.91279 -2.85614
upperneck 14.6713 -2.45547 2.22701
head 6.35425 -1.16433 0.964775
rclavicle 1.8487e-014 4.17448e-014
rhumerus -30.0387 -2.21406 -86.5103
rradius 47.8044
rwrist -6.23476
rhand -24.7716 -47.1296
rfingers 7.12502
rthumb 1.73213 -77.1023
lclavicle 1.8487e-014 4.17448e-014
lhumerus -43.9804 20.5977 72.3631
lradius 9.17861
lwrist -28.145
lhand -22.614 -16.3551
lfingers 7.12502
lthumb 3.81589 13.5905
rfemur -9.42639 -3.14028 30.5001
rtibia 30.1788
rfoot -18.0617 21.5526
rtoes 13.8525
lfemur -40.0355 5.48908 -16.6211
ltibia 54.5924
lfoot -11.9985 4.62532
ltoes -10.0822
101
root 7.66682 15.712 -19.4319 5.99172 -2.60628 -5.25429
lowerback 3.1063 3.13053 6.5095
upperback -2.53215 4.58583 1.98844
thorax -4.02728 2.11939 -1.85967
lowerneck -11.1525 -1.77499 -2.96169
upperneck 14.3186 -2.28465 2.48329
head 6.24359 -1.06723 1.07885
rclavicle 9.06955e-015 1.98785e-014
rhumerus -28.9041 -1.17419 -86.7439
rradius 49.5704
rwrist -6.7356
rhand -24.2705 -47.6817
rfingers 7.12502
rthumb 2.21614 -77.6499
lclavicle 9.06955e-015 1.98785e-014
lhumerus -44.9321 21.0599 71.4372
lradius 8.10433
lwrist -29.8406
lhand -21.5145 -16.0927
lfingers 7.12502
lthumb 4.8776 13.8312
rfemur -8.00442 -3.54655 30.5726
rtibia 29.2572
rfoot -17.6602 22.2313
rtoes 14.627
lfemur -40.2667 5.63036 -16.2096
ltibia 50.9202
lfoot -12.3683 4.62898
ltoes -8.29106
102
root 7.68213 15.7017 -19.1739 6.11919 -2.86109 -5.4706
lowerback 3.03717 3.169 6.7536
upperback -2.59648 4.64576 1.96782
thorax -4.03162 2.14019 -2.01556
lowerneck -9.42578 -1.47412 -3.85267
upperneck 12.6871 -1.95377 3.84948
head 5.44676 -0.867012 1.69121
rclavicle 1.82136e-014 2.26615e-014
rhumerus -28.4217 0.209655 -86.8837
rradius 51.6981
rwrist -7.39046
rhand -21.9617 -41.0791
rfingers 7.12502
rthumb 4.44571 -71.0125
lclavicle 1.82136e-014 2.26615e-014
lhumerus -45.9992 21.4553 70.5165
lradius 6.66308
lwrist -31.5085
lhand -22.1312 -15.1014
lfingers 7.12502
lthumb 4.28205 14.8353
rfemur -6.60005 -4.10176 30.5463
rtibia 28.2256
rfoot -16.9763 22.9642
rtoes 14.9572
lfemur -40.4907 5.42026 -15.8339
ltibia 47.0071
lfoot -12.5672 5.25212
ltoes -10.5095
